<svg width="1060" height="645" viewBox="0 0 1060 645" fill="none" xmlns="http://www.w3.org/2000/svg">
<path d="M738.059 243.055L735.597 254.312L730.831 249.435L730.73 245.806L738.059 243.055ZM733.932 243.233L733.16 240.396L731.439 242.4L723.451 242.841L723.084 239.535L717.382 242.163L728.375 245.628L728.23 250.323L731.103 250.956L735.299 257.736L686.901 274.779L657.205 283.171L633.433 278.34L613.781 280.011L596.889 286.045L580.44 311.958L581.066 316.339L562.661 330.35L560.933 332.454L563.364 336.388L557.364 340.163L538.187 342.02L532.706 335.372L534.358 331.852L536.718 331.88L535.978 329.257L520.269 325.313L500.472 328.055L486.371 332.895L474.263 338.632L465.029 346.045L455.864 366.368L442.428 381.676L435.624 404.471L444.459 438.394L455.611 452.46L446.447 498.031L461.681 527.506L460.58 545.032L471.029 565.109L451.928 540.179L448.358 539.017L447.624 547.651L443.719 544.837L445.966 542.05L443.428 541.699L436.029 550.064L450.681 559.667L460.611 559.831L470.617 566.206L470.624 571.37L465.839 569.448L459.788 560.906L449.421 560.71L438.472 554.986L428.491 555.765L427.966 557.669L433.605 558.474L434.042 560.164L430.048 559.845L428.656 562.6L424.213 563.397L424.396 566.648L420.32 567.968L423.111 570.91L419.396 574.621L409.548 577.786L402.808 577.699L400.093 579.867L396.688 577.85L392.339 580.823L400.77 585.568L395.403 588.345L392.548 585.727L388.029 587.134L388.998 584.557L385.985 584.989L385.352 579.885L373.656 583.441L369.479 581.324L367.764 577.048L353.599 575.828L346.409 577.827L353.093 579.94L351.213 586.674L354.561 584.953L355.808 586.223L352.643 587.025L352.928 589.074L342.859 591.446L343.757 594.684L337.58 597.876L332.207 593.568L325.707 594.119L325.701 597.197L321.808 599.073L317.011 606.591L305.929 605.926L294.074 599.866L285.435 600.717L282.663 603.891L286.796 605.494L281.131 605.389L280.353 598.927L263.125 602.894L257.353 601.851L256.201 606.882L250.549 605.566L245.587 609.36L249.961 615.174L247.182 615.156L241.385 629.573L236.562 632.182L236.84 637.846L233.758 638.42L232.644 636.102L231.923 636.271L229.657 636.107L229.011 640.005L224.916 640.105L225.176 644.458L213.081 645L202.765 641.011L199.315 637.232L189.436 638.256L194.385 634.969L193.518 631.335L196.227 622.128L204.442 622.15L210.049 614.286L214.41 617.483L222.024 616.95L220.284 610.348L224.954 610.867L224.113 604.232L231.138 602.17L230.783 599.36L234.233 597.835L231.688 595.667L239.682 592.079L235.954 589.092L239.631 587.439L240.796 581.816L237.904 578.177L233.29 582.444L226.79 577.353L222.049 578.282L220.524 576.265L216.125 577.763L212.91 576.169L216.935 574.972L211.34 572.759L216.062 551.039L194.455 550.155L188.569 553.156L189.986 547.332L185.556 546.626L184.923 544.163L174.986 545.465L172.018 542.378L172.777 540.311L178.252 540.679L178.784 538.161L175.543 535.894L179.955 531.655L179.334 525.421L169.739 520.949L169.296 524.255L162.322 523.399L159.752 527.447L156.942 527.47L156.664 521.586L161.379 520.307L159.841 514.725L152.575 519.929L149.316 516.614L140.214 516.255L138.632 518.818L141.461 523.504L134.613 525.912L134.936 528.157L126.24 530.338L125.695 535.967L123.949 533.171L119.733 534.063L120.594 531.6L117.797 531.764L112.677 533.754L116.158 535.725L114.107 536.49L110.708 534.91L105.468 537.556L100.645 534.883L99.6703 540.556L96.3665 538.498L95.7843 541.139L91.3855 541.522L92.4045 529.696L85.9425 529.483L88.0437 525.981L79.4236 524.952L74.1958 526.896L72.4616 523.823L64.9806 525.557L62.7781 520.148L59.8224 523.417L58.949 521.491L55.487 523.572L55.2528 517.953L52.4617 519.67L53.3288 523.85L48.2086 524.592L53.2908 527.388L53.8668 533.826L44.4175 533.221L39.753 535.37L35.2846 532.192L33.3037 535.967L30.8036 535.01L27.6011 528.007L34.0758 520.303L37.253 519.907L36.5314 517.157L22.6517 507.676L28.4682 503.523L22.1074 497.472L16.367 497.098L17.3923 494.366L23.4302 493.692L24.0505 491.407L34.4112 493.023L32.8859 500.313L34.9239 504.694L47.8289 505.777L51.3035 510.713L73.316 507.471L78.6514 511.615L77.9299 519.989L83.5058 519.88L83.6957 521.619L88.4045 518.755L85.7907 516.132L88.8286 512.945L81.5438 512.908L82.5692 509.179L74.9932 507.658L84.1704 499.794L83.4109 498.319L77.4236 500.518L77.8477 497.754L81.6831 497.244L83.4046 493.756L98.069 495.154L97.5184 483.352L92.0122 483.311L90.3729 479.636L82.8602 478.157L81.4489 481.062L86.8413 489.199L82.6135 491.166L78.854 487.432L79.3667 483.593L68.8161 482.929L69.0249 477.546L62.506 479.509L51.9365 476.9L46.6073 481.813L45.7023 489.071L41.7593 489.453L38.3542 486.503L23.5442 486.448L21.829 483.315L25.1708 481.18L15.7657 476.057L16.2974 471.772L20.2657 469.496L24.0379 470.866L24.329 466.408L28.253 463.162L14.5822 464.123L8.9303 458.777L5.24049 458.321L0 451.05L5.01895 438.063L2.67085 433.687L11.7341 431.265L13.8164 415.582L8.97463 416.857L0.481035 415.009L3.23417 410.423L1.86707 405.055L4.87342 403.151L15.443 409.244L29.3669 411.043L31.8669 409.158L37.9871 409.194L37.2086 411.525L42.2213 412.058L52.1832 400.232L49.2782 398.056L52.6706 397.441L52.7339 393.038L47.7972 390.347L53.5314 386.631L51.3794 384.022L47.0757 383.612L46.3162 379.933L39.9428 380.466L35.4176 369.332L27.8669 363.855L28.0694 362.338L35.3163 362.962L35.6707 349.803L42.582 347.931L47.1896 350.663L48.3541 347.326L37.5251 339.903L40.2656 331.174L34.7529 330.323L40.5441 323.67L50.8098 319.599L64.7845 317.91L99.3032 321.548L112.145 322.445L119.113 325.915L126.689 324.922L137.695 327.017L149.423 324.003L164.55 327.618L169.107 323.397L172.733 329.062L178.815 330.774L180.967 328.629L186.113 328.624L188.144 323.556L195.822 320.738L198.296 310.666L206.189 310.88L218.043 305.771L238.372 308.193L246.043 303.999L258.847 311.121L266.979 311.417L275.125 305.129L275.302 298.289L278.625 298.649L279.916 302.884L284.929 303.371L284.264 295.808L286.922 293.795L300.891 289.515L320.188 292.338L325.764 290.12L326.637 263.601L332.042 258.337L353.302 256.261L362.656 251.516L382.643 248.397L399.447 241.717L404.13 245.583L410.966 244.818L416.295 250.792L423.725 250.373L435.618 240.178L438.504 233.407L433.656 229.559L428.168 228.494L430.542 224.136L435.352 218.385L447.01 216.4L453.402 210.494L455.934 213.645L464.004 213.895L469.193 219.314L471.56 227.724L476.782 229.313L478.681 233.653L482.225 229.828L489.231 233.234L489.738 235.738L503.839 238.425L509.307 235.961L502.744 232.296L504.124 227.915L507.01 227.433L506.668 222.224L494.364 220.074L493.902 223.121L476.738 217.852L480.776 213.554L477.896 209.342L481.617 207.261L484.991 212.484L488.396 213.258L493.162 209.961L495.003 204.251L503.491 201.264L516.275 206.25L514.016 209.483L525.427 208.545L539.566 212.402L543.06 209.906L544.579 200.444L550.275 200.48L549.218 194.998L560.598 197.138L567.921 193.755L583.326 191.897L585.813 183L597.155 183.223L604.775 176.215L611.015 179.535L616.819 179.093L627.123 170.437L628.18 161.439L631.129 158.425L628.376 156.426L637.414 146.681L638.135 142.879L665.395 132.347L666.775 130.298L662.205 126.232L667.869 121.974L687.838 116.396L697.496 109.844L715.47 111.269L717.73 114.561L726.249 117.635L729.635 116.97L729.597 110.805L733.698 109.438L734.711 111.847L737.926 111.583L738.401 101.42L741.609 103.146L742.616 101.693L734.793 96.1107L738.331 94.1072L738.869 89.0756L743.502 88.2878L746.306 85.0594L738.54 83.9938L745.167 78.8075L742.097 74.732L757.034 62.0506L760.363 65.5614L763.54 65.3426L764.47 72.2958L767.597 71.9631L765.135 76.7671L773.793 78.848L775.223 81.0655L770.609 85.0226L771.179 88.688L777.293 92.8136L781.521 87.0398L795.862 82.5955L799.337 76.2252L797.078 73.7527L800.115 71.7856L806.179 74.7408L811.438 74.4447L812.394 79.0255L817.799 80.5738L828.995 77.2679L833.799 78.1832L834.444 72.8147L831.685 73.8254L828.761 71.2801L838.558 61.9364L831.027 60.9392L830.286 58.9402L833.875 57.0869L827.786 56.8912L828.255 51.8323L833.476 50.3206L844.337 38.486L853.444 41.5095L853.887 44.146L855.786 39.1509L861.976 40.0297L863.754 36.7649L873.919 35.7176L874.267 32.5255L879.223 32.653L881.21 29.7844L872.64 23.0224L877.09 23.3822L872.52 19.999L870.299 24.0197L867.159 16.7296L872.596 14.7078L880.881 16.083L887.064 21.1464L886.14 15.7369L889.596 15.6686L890.039 13.5741L887.577 8.71547L889.412 7.90501L892.115 10.3775L893.672 9.20732L894.767 13.2144L892.102 13.0141L892.349 14.5896L897.109 15.1587L899.102 8.29672L903.387 10.7055L906.786 6.85773L905.444 3.63396L909.286 0.296267L919.058 14.0477L922.526 14.5123L920.216 17.1852L925.52 23.9015L930.058 24.9442L924.691 17.8635L930.982 14.8627L941.994 33.8871L951.216 36.0729L962.779 35.5128L970.032 41.2684L975.488 40.9131L979.247 38.1629L1003.22 36.5373L1003.72 29.056L1007.21 30.627L1008.42 29.0105L1005.75 27.4076L1010.55 27.9585L1007.59 26.1008L1011.9 27.1162L1016.08 24.3568L1014.25 21.9162L1017.57 19.0247L1014.19 14.321L1021.68 17.5948L1024.04 13.6152L1034.2 9.19366L1037.05 14.412L1040.37 10.2182L1045.91 10.4732L1045.86 7.59081L1041.3 8.04611L1037.6 3.29687L1046.78 3.497L1047.29 0L1052.2 0.560122L1051.11 3.72927L1054.44 6.10161L1060 8.56058L1036.41 28.104L1032.58 36.4778L1020.91 44.4237L1006.37 60.0649L975.836 80.5647L975.69 84.7811L921.995 104.284L902.564 113.809L896.862 120.672L881.039 131.186V134.505L872.349 142.984L854.982 156.33L774.717 185.595L743.027 203.199L733.648 211.705L730.223 220.812L727.205 221.854L728.16 226.198L735.521 230.793L741.154 229.668L739.648 240.911L733.932 243.233Z" fill="#FFFEFE" fill-opacity="0.31"/>
</svg>
